<svg aria-hidden="true" style="position: absolute; width: 0; height: 0; overflow: hidden;" version="1.1" xmlns="http://www.w3.org/2000/svg" xmlns:xlink="http://www.w3.org/1999/xlink">
<defs>
<symbol id="icon-instagram" viewBox="0 0 32 32">
<path d="M8.561 30.933v-19.933h-6.2v19.933h6.2zM5.428 8.333c2 0 3.6-1.667 3.6-3.667 0-1.933-1.6-3.533-3.6-3.533-1.933 0-3.533 1.6-3.533 3.533 0 2 1.6 3.667 3.533 3.667zM31.695 30.933h0.067v-10.933c0-5.333-1.2-9.467-7.467-9.467-3 0-5 1.667-5.867 3.2h-0.067v-2.733h-5.933v19.933h6.2v-9.867c0-2.6 0.467-5.067 3.667-5.067s3.267 2.933 3.267 5.267v9.667h6.133z"></path>
</symbol>
<symbol id="icon-twiter" viewBox="0 0 42 32">
<path d="M37.494 8c1.538-1.154 2.923-2.538 4-4.154-1.385 0.615-3 1.077-4.615 1.231 1.692-1 2.923-2.538 3.538-4.462-1.538 0.923-3.308 1.615-5.077 2-1.538-1.615-3.615-2.538-5.923-2.538-4.462 0-8.077 3.615-8.077 8.077 0 0.615 0.077 1.231 0.231 1.846-6.692-0.385-12.692-3.615-16.692-8.462-0.692 1.154-1.077 2.538-1.077 4.077 0 2.769 1.385 5.231 3.615 6.692-1.308-0.077-2.615-0.385-3.692-1v0.077c0 3.923 2.769 7.154 6.462 7.923-0.615 0.154-1.385 0.308-2.077 0.308-0.538 0-1-0.077-1.538-0.154 1 3.231 4 5.538 7.538 5.615-2.769 2.154-6.231 3.462-10 3.462-0.692 0-1.308-0.077-1.923-0.154 3.538 2.308 7.769 3.616 12.385 3.616 14.846 0 22.923-12.231 22.923-22.923 0-0.385 0-0.692 0-1.077z"></path>
</symbol>
<symbol id="icon-facebook" viewBox="0 0 19 32">
<path d="M16.201 17.882l0.824-5.412h-5.235v-3.529c0-1.529 0.706-2.941 3.059-2.941h2.412v-4.647c0 0-2.176-0.412-4.235-0.412-4.294 0-7.118 2.647-7.118 7.353v4.176h-4.824v5.412h4.824v13.176h5.882v-13.176h4.412z"></path>
</symbol>
<svg aria-hidden="true" style="position: absolute; width: 0; height: 0; overflow: hidden;" version="1.1" xmlns="http://www.w3.org/2000/svg" xmlns:xlink="http://www.w3.org/1999/xlink">
<defs>
<symbol id="icon-main-logo" viewBox="0 0 31 32">
<path fill="#f5f5f5" style="fill: var(--color1, #f5f5f5)" d="M0 0h31.059v32h-31.059v-32z"></path>
<path fill="#fff" style="fill: var(--color2, #fff)" d="M-56.471-39.529h1807.059v2710.588h-1807.059v-2710.588z"></path>
<path fill="#fffbf7" style="fill: var(--color3, #fffbf7)" d="M-56.471-39.529h1807.059v2710.588h-1807.059v-2710.588z"></path>
<path fill="#fff" style="fill: var(--color2, #fff)" d="M-56.471-44.235h1807.059v117.647h-1807.059v-117.647z"></path>
<path fill="none" stroke="#7a9ca5" style="stroke: var(--color4, #7a9ca5)" stroke-linejoin="miter" stroke-linecap="butt" stroke-miterlimit="4" stroke-width="2.3529" d="M29.882 16c0 7.927-6.426 14.353-14.353 14.353s-14.353-6.426-14.353-14.353c0-7.927 6.426-14.353 14.353-14.353s14.353 6.426 14.353 14.353z"></path>
<path fill="none" stroke="#7a9ca5" style="stroke: var(--color4, #7a9ca5)" stroke-linejoin="round" stroke-linecap="round" stroke-miterlimit="4" stroke-width="2.3529" d="M23.309 11.938c0.118 1.228-0.326 2.459-1.235 3.423l-5.442 5.785-7.496 0.721-0.631-6.555 5.451-5.778c0.909-0.964 2.209-1.581 3.613-1.716l4.911 0.118 0.829 4.002z"></path>
<path fill="none" stroke="#7a9ca5" style="stroke: var(--color4, #7a9ca5)" stroke-linejoin="round" stroke-linecap="round" stroke-miterlimit="4" stroke-width="2.3529" d="M18.824 11.765l-14.118 14.118"></path>
<path fill="none" stroke="#7a9ca5" style="stroke: var(--color4, #7a9ca5)" stroke-linejoin="round" stroke-linecap="round" stroke-miterlimit="4" stroke-width="2.3529" d="M19.765 17.412h-6.588"></path>
<path fill="none" stroke="#7a9ca5" style="stroke: var(--color4, #7a9ca5)" stroke-linejoin="round" stroke-linecap="round" stroke-miterlimit="4" stroke-width="2.3529" d="M18.824 11.765h-6.588"></path>
</symbol>
<svg aria-hidden="true" style="position: absolute; width: 0; height: 0; overflow: hidden;" version="1.1" xmlns="http://www.w3.org/2000/svg" xmlns:xlink="http://www.w3.org/1999/xlink">
<defs>
<symbol id="icon-tel" viewBox="0 0 32 32">
<path fill="none" stroke="#7a9ca5" style="stroke: var(--color1, #7a9ca5)" stroke-linejoin="round" stroke-linecap="round" stroke-miterlimit="4" stroke-width="2.7826" d="M19.392 6.957c1.359 0.265 2.608 0.93 3.587 1.909s1.644 2.228 1.909 3.587l-5.496-5.496zM19.392 1.391c2.823 0.314 5.456 1.578 7.466 3.585s3.277 4.639 3.595 7.462l-11.061-11.047zM29.062 23.541v4.174c0.002 0.387-0.078 0.771-0.233 1.126s-0.383 0.674-0.668 0.936c-0.285 0.262-0.623 0.461-0.99 0.585s-0.756 0.17-1.142 0.135c-4.281-0.465-8.394-1.928-12.007-4.271-3.362-2.136-6.212-4.986-8.348-8.348-2.351-3.63-3.815-7.762-4.271-12.063-0.035-0.385 0.011-0.772 0.134-1.139s0.322-0.703 0.582-0.988c0.26-0.285 0.577-0.513 0.931-0.669s0.735-0.237 1.122-0.237h4.174c0.675-0.007 1.33 0.232 1.842 0.673s0.846 1.052 0.941 1.72c0.176 1.336 0.503 2.647 0.974 3.91 0.187 0.498 0.228 1.039 0.117 1.559s-0.369 0.998-0.743 1.376l-1.767 1.767c1.981 3.483 4.865 6.367 8.348 8.348l1.767-1.767c0.378-0.374 0.856-0.632 1.376-0.743s1.062-0.070 1.559 0.117c1.262 0.471 2.574 0.798 3.91 0.974 0.676 0.095 1.293 0.436 1.734 0.957s0.676 1.186 0.659 1.868z"></path>
</symbol>
<svg aria-hidden="true" style="position: absolute; width: 0; height: 0; overflow: hidden;" version="1.1" xmlns="http://www.w3.org/2000/svg" xmlns:xlink="http://www.w3.org/1999/xlink">
<defs>
<symbol id="icon-email" viewBox="0 0 32 32">
<path fill="none" stroke="#141414" style="stroke: var(--color1, #141414)" stroke-linejoin="round" stroke-linecap="round" stroke-miterlimit="4" stroke-width="0.9697" d="M20.849 13.333c0-0.533-0.436-0.97-0.97-0.97h-7.758c-0.533 0-0.97 0.436-0.97 0.97M20.849 13.333v5.818c0 0.533-0.436 0.97-0.97 0.97h-7.758c-0.533 0-0.97-0.436-0.97-0.97v-5.818M20.849 13.333l-4.849 3.394-4.848-3.394"></path>
<path fill="none" stroke="#7a9ca5" style="stroke: var(--color2, #7a9ca5)" stroke-linejoin="miter" stroke-linecap="butt" stroke-miterlimit="4" stroke-width="0.9697" d="M0.485 0.727h30.545v30.545h-30.545v-30.545z"></path>
</symbol>
<symbol id="icon-call" viewBox="0 0 32 32">
<path fill="none" stroke="#7a9ca5" style="stroke: var(--color2, #7a9ca5)" stroke-linejoin="miter" stroke-linecap="butt" stroke-miterlimit="4" stroke-width="0.9697" d="M0.485 0.727h30.545v30.545h-30.545v-30.545z"></path>
<path fill="none" stroke="#141414" style="stroke: var(--color1, #141414)" stroke-linejoin="round" stroke-linecap="round" stroke-miterlimit="4" stroke-width="0.9697" d="M17.479 12.848c0.474 0.092 0.909 0.324 1.25 0.665s0.573 0.776 0.665 1.25M17.479 10.909c0.984 0.109 1.901 0.55 2.602 1.249s1.142 1.617 1.253 2.6M20.849 18.628v1.455c0.001 0.135-0.027 0.269-0.081 0.392s-0.133 0.235-0.233 0.326c-0.099 0.091-0.217 0.161-0.345 0.204s-0.263 0.059-0.398 0.047c-1.492-0.162-2.925-0.672-4.184-1.488-1.171-0.744-2.165-1.738-2.909-2.909-0.819-1.265-1.329-2.705-1.489-4.204-0.012-0.134 0.004-0.269 0.047-0.397s0.112-0.245 0.203-0.344c0.091-0.099 0.201-0.179 0.324-0.233s0.256-0.083 0.391-0.083h1.455c0.235-0.002 0.463 0.081 0.642 0.234s0.295 0.367 0.328 0.6c0.061 0.466 0.175 0.923 0.339 1.362 0.065 0.174 0.079 0.362 0.041 0.543s-0.129 0.348-0.259 0.48l-0.616 0.616c0.69 1.214 1.695 2.219 2.909 2.909l0.616-0.616c0.132-0.13 0.298-0.22 0.48-0.259s0.37-0.025 0.543 0.041c0.44 0.164 0.897 0.278 1.362 0.339 0.236 0.033 0.451 0.152 0.604 0.333s0.235 0.413 0.23 0.651z"></path>
</symbol>
</defs>
</svg>